<svg width="18" height="18" viewBox="0 0 18 18" fill="none" xmlns="http://www.w3.org/2000/svg">
<path d="M3.2168 9.06445C3.2168 8.82292 3.30339 8.61556 3.47656 8.44238C3.64974 8.26921 3.8571 8.18262 4.09863 8.18262H8.125V4.16309C8.125 3.92155 8.20931 3.71419 8.37793 3.54102C8.54655 3.36784 8.75391 3.28125 9 3.28125C9.24154 3.28125 9.44889 3.36784 9.62207 3.54102C9.79525 3.71419 9.88184 3.92155 9.88184 4.16309V8.18262H13.9082C14.1452 8.18262 14.3503 8.26921 14.5234 8.44238C14.6966 8.61556 14.7832 8.82292 14.7832 9.06445C14.7832 9.31055 14.6966 9.52018 14.5234 9.69336C14.3503 9.86198 14.1452 9.94629 13.9082 9.94629H9.88184V13.9727C9.88184 14.2096 9.79525 14.4147 9.62207 14.5879C9.44889 14.7611 9.24154 14.8477 9 14.8477C8.75391 14.8477 8.54655 14.7611 8.37793 14.5879C8.20931 14.4147 8.125 14.2096 8.125 13.9727V9.94629H4.09863C3.8571 9.94629 3.64974 9.86198 3.47656 9.69336C3.30339 9.52018 3.2168 9.31055 3.2168 9.06445Z" fill="#868686"/>
</svg>
