<svg width="24" height="24" viewBox="0 0 24 24" fill="none" xmlns="http://www.w3.org/2000/svg">
<path d="M17.5225 14.4146C17.5225 14.6538 17.4419 14.854 17.2808 15.0151C17.1196 15.1763 16.9316 15.2568 16.7168 15.2568C16.4971 15.2568 16.3115 15.1763 16.1602 15.0151C16.0088 14.8491 15.9331 14.6562 15.9331 14.4365V11.6973L16.0503 8.67969L14.8638 10.0127L7.88379 16.9927C7.71289 17.1587 7.52002 17.2417 7.30518 17.2417C7.15869 17.2417 7.02197 17.2026 6.89502 17.1245C6.77295 17.0513 6.67285 16.9512 6.59473 16.8242C6.5166 16.6973 6.47754 16.563 6.47754 16.4214C6.47754 16.2114 6.56543 16.0186 6.74121 15.8428L13.7065 8.85547L15.0396 7.68359L11.8901 7.79346H9.28271C9.06299 7.79346 8.87256 7.71777 8.71143 7.56641C8.55029 7.41016 8.46973 7.22461 8.46973 7.00976C8.46973 6.79492 8.54785 6.60693 8.7041 6.4458C8.86035 6.28467 9.06055 6.2041 9.30469 6.2041H16.6582C16.9219 6.2041 17.1294 6.28467 17.2808 6.4458C17.437 6.60205 17.5151 6.80713 17.5151 7.06103L17.5225 14.4146Z" fill="currentColor"/>
</svg>
