<svg width="24" height="24" viewBox="0 0 24 24" fill="none" xmlns="http://www.w3.org/2000/svg">
<path d="M5.64941 12.0645C5.64941 11.8913 5.72005 11.7386 5.86133 11.6064L10.3867 7.08789C10.4596 7.01497 10.5326 6.96257 10.6055 6.93066C10.6829 6.89876 10.7627 6.88281 10.8447 6.88281C11.0133 6.88281 11.1546 6.93978 11.2686 7.05371C11.387 7.16309 11.4463 7.30208 11.4463 7.4707C11.4463 7.55273 11.4303 7.63249 11.3984 7.70996C11.3711 7.78288 11.3301 7.84668 11.2754 7.90137L9.74414 9.45996L7.03711 11.9346L6.89355 11.5928L9.09473 11.4561H17.7422C17.9199 11.4561 18.0635 11.513 18.1729 11.627C18.2868 11.7409 18.3438 11.8867 18.3438 12.0645C18.3438 12.2422 18.2868 12.388 18.1729 12.502C18.0635 12.6159 17.9199 12.6729 17.7422 12.6729H9.09473L6.89355 12.5361L7.03711 12.2012L9.74414 14.6689L11.2754 16.2275C11.3301 16.2822 11.3711 16.3483 11.3984 16.4258C11.4303 16.4987 11.4463 16.5762 11.4463 16.6582C11.4463 16.8268 11.387 16.9658 11.2686 17.0752C11.1546 17.1891 11.0133 17.2461 10.8447 17.2461C10.6807 17.2461 10.5326 17.1823 10.4004 17.0547L5.86133 12.5225C5.72005 12.3903 5.64941 12.2376 5.64941 12.0645Z" fill="black"/>
</svg>
