<svg width="18" height="18" viewBox="0 0 18 18" fill="none" xmlns="http://www.w3.org/2000/svg">
<path d="M9 2.20801C9.11849 2.20801 9.22786 2.23307 9.32812 2.2832C9.43294 2.32878 9.5332 2.39714 9.62891 2.48828L13.5186 6.2207C13.5915 6.29362 13.6507 6.37793 13.6963 6.47363C13.7464 6.56934 13.7715 6.67643 13.7715 6.79492C13.7715 6.94987 13.735 7.08887 13.6621 7.21191C13.5892 7.3304 13.4912 7.42383 13.3682 7.49219C13.2497 7.56055 13.1198 7.59473 12.9785 7.59473C12.8828 7.59473 12.7826 7.57878 12.6777 7.54688C12.5775 7.51042 12.484 7.44889 12.3975 7.3623L9 4.04004L5.60254 7.3623C5.51595 7.45345 5.42253 7.51497 5.32227 7.54688C5.22201 7.57878 5.12174 7.59473 5.02148 7.59473C4.87565 7.59473 4.74349 7.56055 4.625 7.49219C4.50651 7.42383 4.41081 7.3304 4.33789 7.21191C4.26497 7.08887 4.22852 6.94987 4.22852 6.79492C4.22852 6.67643 4.2513 6.56934 4.29688 6.47363C4.34701 6.37793 4.41081 6.29362 4.48828 6.2207L8.37109 2.48828C8.4668 2.39714 8.56706 2.32878 8.67188 2.2832C8.77669 2.23307 8.88607 2.20801 9 2.20801ZM9 15.9209C8.88607 15.9209 8.77669 15.8958 8.67188 15.8457C8.56706 15.8001 8.4668 15.7318 8.37109 15.6406L4.48828 11.9082C4.41081 11.8307 4.34701 11.7441 4.29688 11.6484C4.2513 11.5527 4.22852 11.4456 4.22852 11.3271C4.22852 11.1722 4.26497 11.0355 4.33789 10.917C4.41081 10.7985 4.50651 10.7051 4.625 10.6367C4.74349 10.5684 4.87565 10.5342 5.02148 10.5342C5.12174 10.5342 5.22201 10.5501 5.32227 10.582C5.42253 10.6139 5.51595 10.6755 5.60254 10.7666L9 14.0889L12.3975 10.7666C12.484 10.68 12.5775 10.6208 12.6777 10.5889C12.7826 10.5524 12.8828 10.5342 12.9785 10.5342C13.1198 10.5342 13.2497 10.5684 13.3682 10.6367C13.4912 10.7051 13.5892 10.7985 13.6621 10.917C13.735 11.0355 13.7715 11.1722 13.7715 11.3271C13.7715 11.4456 13.7464 11.5527 13.6963 11.6484C13.6507 11.7441 13.5915 11.8307 13.5186 11.9082L9.62891 15.6406C9.5332 15.7318 9.43294 15.8001 9.32812 15.8457C9.22786 15.8958 9.11849 15.9209 9 15.9209Z" fill="#868686"/>
</svg>
