<svg width="24" height="24" viewBox="0 0 24 24" fill="none" xmlns="http://www.w3.org/2000/svg">
<path d="M12 19.1943C11.0156 19.1943 10.0928 19.0075 9.23145 18.6338C8.37012 18.2646 7.61133 17.7542 6.95508 17.1025C6.30339 16.4508 5.79297 15.6943 5.42383 14.833C5.05469 13.9717 4.87012 13.0488 4.87012 12.0645C4.87012 11.0801 5.05469 10.1572 5.42383 9.2959C5.79297 8.43457 6.30339 7.67806 6.95508 7.02637C7.61133 6.37012 8.37012 5.85742 9.23145 5.48828C10.0928 5.11914 11.0156 4.93457 12 4.93457C12.9844 4.93457 13.9072 5.11914 14.7686 5.48828C15.6299 5.85742 16.3864 6.37012 17.0381 7.02637C17.6898 7.67806 18.2002 8.43457 18.5693 9.2959C18.943 10.1572 19.1299 11.0801 19.1299 12.0645C19.1299 13.0488 18.943 13.9717 18.5693 14.833C18.2002 15.6943 17.6898 16.4508 17.0381 17.1025C16.3864 17.7542 15.6299 18.2646 14.7686 18.6338C13.9072 19.0075 12.9844 19.1943 12 19.1943ZM12 17.6289C12.7702 17.6289 13.4902 17.4854 14.1602 17.1982C14.8346 16.9111 15.4248 16.5124 15.9307 16.002C16.4411 15.487 16.8398 14.8945 17.127 14.2246C17.4186 13.5501 17.5645 12.8301 17.5645 12.0645C17.5645 11.2943 17.4186 10.5742 17.127 9.9043C16.8398 9.22982 16.4411 8.63737 15.9307 8.12695C15.4248 7.61654 14.8346 7.21777 14.1602 6.93066C13.4902 6.64355 12.7702 6.5 12 6.5C11.2298 6.5 10.5075 6.64355 9.83301 6.93066C9.16309 7.21777 8.57292 7.61654 8.0625 8.12695C7.55208 8.63737 7.15332 9.22982 6.86621 9.9043C6.5791 10.5742 6.43555 11.2943 6.43555 12.0645C6.43555 12.8301 6.5791 13.5501 6.86621 14.2246C7.15332 14.8945 7.55208 15.487 8.0625 16.002C8.57292 16.5124 9.16309 16.9111 9.83301 17.1982C10.5075 17.4854 11.2298 17.6289 12 17.6289ZM8.8418 12.0645C8.8418 11.8594 8.9056 11.693 9.0332 11.5654C9.16081 11.4333 9.32715 11.3672 9.53223 11.3672H11.3027V9.59668C11.3027 9.39616 11.3665 9.2321 11.4941 9.10449C11.6263 8.97233 11.7904 8.90625 11.9863 8.90625C12.1914 8.90625 12.3577 8.97005 12.4854 9.09766C12.6175 9.22526 12.6836 9.3916 12.6836 9.59668V11.3672H14.4609C14.6615 11.3672 14.8255 11.4333 14.9531 11.5654C15.0807 11.693 15.1445 11.8594 15.1445 12.0645C15.1445 12.2604 15.0807 12.4245 14.9531 12.5566C14.8255 12.6842 14.6615 12.748 14.4609 12.748H12.6836V14.5254C12.6836 14.7259 12.6175 14.89 12.4854 15.0176C12.3577 15.1452 12.1914 15.209 11.9863 15.209C11.7904 15.209 11.6263 15.1452 11.4941 15.0176C11.3665 14.89 11.3027 14.7259 11.3027 14.5254V12.748H9.53223C9.33171 12.748 9.16536 12.6842 9.0332 12.5566C8.9056 12.4245 8.8418 12.2604 8.8418 12.0645Z" fill="currentColor"/>
</svg>
