<svg width="24" height="24" viewBox="0 0 18 18" fill="none" xmlns="http://www.w3.org/2000/svg">
<path d="M4.62305 9.95312C4.40039 9.95312 4.19922 9.90039 4.01953 9.79492C3.83984 9.68555 3.69727 9.54102 3.5918 9.36133C3.48633 9.18164 3.43359 8.98438 3.43359 8.76953C3.43359 8.55078 3.48633 8.35156 3.5918 8.17188C3.69727 7.99219 3.83984 7.84961 4.01953 7.74414C4.19922 7.63477 4.40039 7.58008 4.62305 7.58008C4.83789 7.58008 5.03516 7.63477 5.21484 7.74414C5.39453 7.84961 5.53711 7.99219 5.64258 8.17188C5.74805 8.35156 5.80078 8.55078 5.80078 8.76953C5.80078 8.98438 5.74805 9.18164 5.64258 9.36133C5.53711 9.54102 5.39453 9.68555 5.21484 9.79492C5.03516 9.90039 4.83789 9.95312 4.62305 9.95312ZM9 9.95312C8.78125 9.95312 8.58203 9.90039 8.40234 9.79492C8.22266 9.68555 8.07812 9.54102 7.96875 9.36133C7.86328 9.18164 7.81055 8.98438 7.81055 8.76953C7.81055 8.55078 7.86328 8.35156 7.96875 8.17188C8.07812 7.99219 8.22266 7.84961 8.40234 7.74414C8.58203 7.63477 8.78125 7.58008 9 7.58008C9.21875 7.58008 9.41602 7.63477 9.5918 7.74414C9.77148 7.84961 9.91406 7.99219 10.0195 8.17188C10.1289 8.35156 10.1836 8.55078 10.1836 8.76953C10.1836 8.98438 10.1289 9.18164 10.0195 9.36133C9.91406 9.54102 9.77148 9.68555 9.5918 9.79492C9.41602 9.90039 9.21875 9.95312 9 9.95312ZM13.377 9.95312C13.1582 9.95312 12.959 9.90039 12.7793 9.79492C12.5996 9.68555 12.457 9.54102 12.3516 9.36133C12.2461 9.18164 12.1934 8.98438 12.1934 8.76953C12.1934 8.55078 12.2461 8.35156 12.3516 8.17188C12.457 7.99219 12.5996 7.84961 12.7793 7.74414C12.959 7.63477 13.1582 7.58008 13.377 7.58008C13.5957 7.58008 13.7949 7.63477 13.9746 7.74414C14.1543 7.84961 14.2969 7.99219 14.4023 8.17188C14.5117 8.35156 14.5664 8.55078 14.5664 8.76953C14.5664 8.98438 14.5117 9.18164 14.4023 9.36133C14.2969 9.54102 14.1543 9.68555 13.9746 9.79492C13.7949 9.90039 13.5957 9.95312 13.377 9.95312Z" fill="currentColor"/>
</svg>
