<svg width="18" height="18" viewBox="0 0 18 18" fill="none" xmlns="http://www.w3.org/2000/svg">
<path d="M2.23242 12.7148C2.23242 12.4596 2.29395 12.2204 2.41699 11.9971C2.5446 11.7692 2.70638 11.5527 2.90234 11.3477C3.09831 11.138 3.30111 10.9329 3.51074 10.7324C3.67936 10.5775 3.80924 10.377 3.90039 10.1309C3.99609 9.88021 4.06673 9.59993 4.1123 9.29004C4.16243 8.97559 4.20573 8.64062 4.24219 8.28516C4.2832 7.44661 4.40169 6.7015 4.59766 6.0498C4.79362 5.39811 5.08073 4.85124 5.45898 4.40918C5.8418 3.96257 6.32943 3.63216 6.92188 3.41797C7.05859 2.95768 7.31152 2.57715 7.68066 2.27637C8.0498 1.97103 8.4873 1.81836 8.99316 1.81836C9.50814 1.81836 9.9502 1.97103 10.3193 2.27637C10.6885 2.57715 10.9414 2.95768 11.0781 3.41797C11.666 3.63216 12.1491 3.96257 12.5273 4.40918C12.9102 4.85124 13.1995 5.39811 13.3955 6.0498C13.596 6.7015 13.7168 7.44661 13.7578 8.28516C13.7943 8.64062 13.8353 8.97559 13.8809 9.29004C13.931 9.59993 14.0016 9.88021 14.0928 10.1309C14.1885 10.377 14.3206 10.5775 14.4893 10.7324C14.6989 10.9329 14.9017 11.138 15.0977 11.3477C15.2936 11.5527 15.4531 11.7692 15.5762 11.9971C15.7038 12.2204 15.7676 12.4596 15.7676 12.7148C15.7676 13.0339 15.6582 13.2913 15.4395 13.4873C15.2207 13.6787 14.9222 13.7744 14.5439 13.7744H11.7822C11.764 14.2119 11.6364 14.6243 11.3994 15.0117C11.167 15.3991 10.8434 15.7113 10.4287 15.9482C10.0186 16.1898 9.54004 16.3105 8.99316 16.3105C8.4554 16.3105 7.97917 16.1898 7.56445 15.9482C7.1543 15.7067 6.83073 15.3923 6.59375 15.0049C6.36133 14.6221 6.236 14.2119 6.21777 13.7744H3.45605C3.0778 13.7744 2.7793 13.6787 2.56055 13.4873C2.3418 13.2913 2.23242 13.0339 2.23242 12.7148ZM4.0918 12.3594H13.8809V12.2842C13.8079 12.2204 13.7214 12.1429 13.6211 12.0518C13.5254 11.9561 13.4206 11.8512 13.3066 11.7373C13.1973 11.6234 13.0879 11.5026 12.9785 11.375C12.8691 11.2428 12.7712 11.0788 12.6846 10.8828C12.598 10.6868 12.5251 10.4658 12.4658 10.2197C12.4111 9.97363 12.3633 9.70703 12.3223 9.41992C12.2812 9.13281 12.2516 8.82975 12.2334 8.51074C12.2061 7.6403 12.1012 6.94531 11.9189 6.42578C11.7367 5.90169 11.502 5.50749 11.2148 5.24316C10.9323 4.97884 10.6156 4.79883 10.2646 4.70312C10.1826 4.6849 10.1165 4.65299 10.0664 4.60742C10.0208 4.56185 9.99577 4.48893 9.99121 4.38867C9.96842 4.05143 9.86816 3.78027 9.69043 3.5752C9.51725 3.37012 9.28483 3.26758 8.99316 3.26758C8.70605 3.26758 8.47591 3.37012 8.30273 3.5752C8.12956 3.78027 8.03158 4.05143 8.00879 4.38867C7.99967 4.48893 7.97233 4.56185 7.92676 4.60742C7.88118 4.65299 7.81738 4.6849 7.73535 4.70312C7.37988 4.79883 7.05859 4.97884 6.77148 5.24316C6.48893 5.50749 6.25651 5.90169 6.07422 6.42578C5.89648 6.94531 5.79167 7.6403 5.75977 8.51074C5.74154 8.82975 5.71419 9.13281 5.67773 9.41992C5.64128 9.70703 5.59115 9.97363 5.52734 10.2197C5.4681 10.4658 5.39518 10.6868 5.30859 10.8828C5.22656 11.0788 5.12858 11.2428 5.01465 11.375C4.90983 11.5026 4.79818 11.6234 4.67969 11.7373C4.56576 11.8512 4.45638 11.9561 4.35156 12.0518C4.2513 12.1429 4.16471 12.2204 4.0918 12.2842V12.3594ZM7.67383 13.7744C7.69661 14.18 7.83105 14.5036 8.07715 14.7451C8.32324 14.9867 8.62858 15.1074 8.99316 15.1074C9.36686 15.1074 9.67448 14.9867 9.91602 14.7451C10.1621 14.5036 10.2988 14.18 10.3262 13.7744H7.67383Z" fill="#868686"/>
</svg>
