<svg width="24" height="24" viewBox="0 0 24 24" fill="none" xmlns="http://www.w3.org/2000/svg">
<path d="M5.39062 11.8594C5.39062 11.5833 5.48958 11.3464 5.6875 11.1484C5.88542 10.9505 6.1224 10.8516 6.39844 10.8516H11V6.25781C11 5.98177 11.0964 5.74479 11.2891 5.54688C11.4818 5.34896 11.7188 5.25 12 5.25C12.276 5.25 12.513 5.34896 12.7109 5.54688C12.9089 5.74479 13.0078 5.98177 13.0078 6.25781V10.8516H17.6094C17.8802 10.8516 18.1146 10.9505 18.3125 11.1484C18.5104 11.3464 18.6094 11.5833 18.6094 11.8594C18.6094 12.1406 18.5104 12.3802 18.3125 12.5781C18.1146 12.7708 17.8802 12.8672 17.6094 12.8672H13.0078V17.4688C13.0078 17.7396 12.9089 17.974 12.7109 18.1719C12.513 18.3698 12.276 18.4688 12 18.4688C11.7188 18.4688 11.4818 18.3698 11.2891 18.1719C11.0964 17.974 11 17.7396 11 17.4688V12.8672H6.39844C6.1224 12.8672 5.88542 12.7708 5.6875 12.5781C5.48958 12.3802 5.39062 12.1406 5.39062 11.8594Z" fill="currentColor"/>
</svg>
