<svg width="18" height="18" viewBox="0 0 18 18" fill="none" xmlns="http://www.w3.org/2000/svg">
<path d="M8.35254 16.3804C8.07747 16.3804 7.83838 16.3 7.63525 16.1392C7.43213 15.9826 7.30094 15.7731 7.2417 15.5107L6.98779 14.4316L6.84814 14.3872L5.91504 14.9585C5.67806 15.1024 5.43262 15.1574 5.17871 15.1235C4.9248 15.0897 4.70052 14.9754 4.50586 14.7808L3.61084 13.8921C3.41195 13.6932 3.29769 13.4668 3.26807 13.2129C3.23844 12.9548 3.29557 12.7114 3.43945 12.4829L4.01709 11.5562L3.96631 11.4229L2.8999 11.1689C2.63753 11.1097 2.42594 10.9785 2.26514 10.7754C2.10856 10.568 2.03027 10.3268 2.03027 10.0518V8.80762C2.03027 8.53255 2.10856 8.29346 2.26514 8.09033C2.42171 7.88721 2.6333 7.75391 2.8999 7.69043L3.95996 7.43018L4.01074 7.29053L3.43311 6.36377C3.28923 6.13525 3.2321 5.89404 3.26172 5.64014C3.29134 5.382 3.40771 5.15348 3.61084 4.95459L4.49951 4.05957C4.69417 3.86914 4.91846 3.757 5.17236 3.72314C5.42627 3.68506 5.6696 3.73796 5.90234 3.88184L6.83545 4.45947L6.98779 4.40234L7.2417 3.32324C7.30094 3.0651 7.43213 2.85563 7.63525 2.69482C7.83838 2.53402 8.07747 2.45361 8.35254 2.45361H9.64746C9.92253 2.45361 10.1616 2.53402 10.3647 2.69482C10.5679 2.8514 10.6991 3.06087 10.7583 3.32324L11.0059 4.40234L11.1582 4.45947L12.0977 3.88184C12.3262 3.73796 12.5674 3.68506 12.8213 3.72314C13.0794 3.757 13.3037 3.86914 13.4941 4.05957L14.3892 4.95459C14.5923 5.15348 14.7065 5.382 14.7319 5.64014C14.7616 5.89404 14.7065 6.13525 14.5669 6.36377L13.9829 7.29053L14.04 7.43018L15.1001 7.69043C15.3625 7.75391 15.5719 7.88721 15.7285 8.09033C15.8893 8.29346 15.9697 8.53255 15.9697 8.80762V10.0518C15.9697 10.3268 15.8893 10.568 15.7285 10.7754C15.5719 10.9785 15.3625 11.1097 15.1001 11.1689L14.0337 11.4229L13.9766 11.5562L14.5605 12.4829C14.7044 12.7114 14.7616 12.9548 14.7319 13.2129C14.7023 13.4668 14.5881 13.6932 14.3892 13.8921L13.4941 14.7808C13.2995 14.9754 13.0731 15.0897 12.8149 15.1235C12.561 15.1574 12.3198 15.1024 12.0913 14.9585L11.1519 14.3872L11.0059 14.4316L10.7583 15.5107C10.6991 15.7731 10.5679 15.9826 10.3647 16.1392C10.1616 16.3 9.92253 16.3804 9.64746 16.3804H8.35254ZM8.55566 15.1108H9.44434C9.5459 15.1108 9.60303 15.0622 9.61572 14.9648L9.99658 13.4097C10.2124 13.3631 10.4155 13.2996 10.606 13.2192C10.7964 13.1388 10.9762 13.0457 11.1455 12.9399L12.5039 13.7715C12.5885 13.8307 12.6647 13.8223 12.7324 13.7461L13.3545 13.124C13.4222 13.0605 13.4285 12.9865 13.3735 12.9019L12.5356 11.5435C12.633 11.3826 12.7218 11.2049 12.8022 11.0103C12.8826 10.8114 12.9482 10.6104 12.999 10.4072L14.5605 10.0391C14.6536 10.0221 14.7002 9.96289 14.7002 9.86133V8.9917C14.7002 8.89437 14.6536 8.83724 14.5605 8.82031L12.999 8.43945C12.9525 8.22786 12.8869 8.02474 12.8022 7.83008C12.7176 7.63118 12.6309 7.45557 12.542 7.30322L13.3799 5.94482C13.4349 5.86019 13.4285 5.78402 13.3608 5.71631L12.7388 5.10059C12.6668 5.03711 12.5885 5.02865 12.5039 5.0752L11.1455 5.90039C10.9805 5.80306 10.8006 5.71208 10.606 5.62744C10.4155 5.54281 10.2124 5.47721 9.99658 5.43066L9.61572 3.86914C9.60303 3.77181 9.5459 3.72314 9.44434 3.72314H8.55566C8.4541 3.72314 8.39486 3.77181 8.37793 3.86914L8.00977 5.41797C7.79818 5.46875 7.58659 5.53857 7.375 5.62744C7.16764 5.71208 6.98991 5.80094 6.8418 5.89404L5.48975 5.06885C5.40088 5.0223 5.32259 5.03288 5.25488 5.10059L4.62646 5.70996C4.56299 5.77767 4.55876 5.85596 4.61377 5.94482L5.45166 7.30322C5.36279 7.45557 5.27604 7.63118 5.19141 7.83008C5.10677 8.02474 5.04118 8.22998 4.99463 8.4458L3.43945 8.82031C3.34635 8.83724 3.2998 8.89437 3.2998 8.9917V9.86133C3.2998 9.96289 3.34635 10.0221 3.43945 10.0391L5.00098 10.4072C5.04753 10.6146 5.111 10.8156 5.19141 11.0103C5.27181 11.2007 5.36068 11.3784 5.45801 11.5435L4.61377 12.9019C4.56722 12.9907 4.57568 13.0669 4.63916 13.1304L5.26123 13.7524C5.32894 13.8244 5.40511 13.8328 5.48975 13.7778L6.85449 12.9399C7.01953 13.0457 7.19938 13.141 7.39404 13.2256C7.59294 13.306 7.79606 13.3674 8.00342 13.4097L8.37793 14.9648C8.39486 15.0622 8.4541 15.1108 8.55566 15.1108ZM9 11.8164C8.55566 11.8164 8.15153 11.7085 7.7876 11.4927C7.42367 11.2769 7.13379 10.987 6.91797 10.623C6.70638 10.2591 6.60059 9.8571 6.60059 9.41699C6.60059 8.97266 6.70638 8.57064 6.91797 8.21094C7.13379 7.84701 7.42367 7.55713 7.7876 7.34131C8.15153 7.12549 8.55566 7.01758 9 7.01758C9.4401 7.01758 9.84001 7.12549 10.1997 7.34131C10.5636 7.55713 10.8535 7.84701 11.0693 8.21094C11.2852 8.57064 11.3931 8.97266 11.3931 9.41699C11.3931 9.8571 11.2852 10.2591 11.0693 10.623C10.8535 10.987 10.5636 11.2769 10.1997 11.4927C9.84001 11.7085 9.4401 11.8164 9 11.8164ZM9 10.6484C9.22428 10.6484 9.42952 10.5934 9.61572 10.4834C9.80192 10.3734 9.95003 10.2253 10.0601 10.0391C10.1701 9.84863 10.2251 9.64128 10.2251 9.41699C10.2251 9.18848 10.1701 8.98112 10.0601 8.79492C9.95003 8.60872 9.80192 8.46061 9.61572 8.35059C9.42952 8.24056 9.22428 8.18555 9 8.18555C8.77148 8.18555 8.56413 8.24056 8.37793 8.35059C8.19173 8.46061 8.04362 8.60872 7.93359 8.79492C7.82357 8.98112 7.76855 9.18848 7.76855 9.41699C7.76855 9.64128 7.82357 9.84863 7.93359 10.0391C8.04362 10.2253 8.19173 10.3734 8.37793 10.4834C8.56413 10.5934 8.77148 10.6484 9 10.6484Z" fill="#868686"/>
</svg>
