<svg width="24" height="24" viewBox="0 0 24 24" fill="none" xmlns="http://www.w3.org/2000/svg">
<path d="M5.64889 5.8446C5.7271 5.46195 6.27383 5.46196 6.35204 5.8446C6.52478 6.68972 7.18523 7.35018 8.03035 7.52291C8.413 7.60112 8.413 8.14786 8.03035 8.22607C7.18523 8.3988 6.52478 9.05926 6.35204 9.90438C6.27383 10.287 5.7271 10.287 5.64889 9.90438C5.47615 9.05926 4.8157 8.3988 3.97058 8.22607C3.58793 8.14786 3.58793 7.60112 3.97058 7.52291C4.8157 7.35018 5.47615 6.68972 5.64889 5.8446Z" fill="currentColor"/>
<path d="M10.876 19.69C9.77736 19.4503 8.66998 18.9744 7.64464 18.2564C4.81705 16.2765 3.50566 13.0809 4.24709 10.4998M16.367 10.1248C18.2914 12.4725 18.376 14.9998 17.626 16.1248C16.126 18.3748 13.126 16.8748 13.126 16.8748M9.00102 6.83766C10.5931 6.6955 12.3566 7.09678 13.9662 8.06228M9.59634 15.3056C9.23019 15.3167 8.93042 15.0169 8.94151 14.6508C8.97095 13.6793 9.36999 12.7558 10.0572 12.0686L15.8153 6.31043C16.4011 5.72465 17.3509 5.72465 17.9367 6.31043C18.5224 6.89622 18.5224 7.84597 17.9367 8.43175L12.1785 14.1899C11.4913 14.8771 10.5678 15.2761 9.59634 15.3056Z" stroke="currentColor" stroke-width="1.2" stroke-linecap="round"/>
</svg>
