<svg width="24" height="24" viewBox="0 0 24 24" fill="none" xmlns="http://www.w3.org/2000/svg">
<path d="M11.7476 5.30907L11.4962 4.76429L11.7476 5.30907ZM12.4943 4.96448L12.7457 5.50925V5.50925L12.4943 4.96448ZM14.5057 4.96447L14.7572 4.4197L14.7572 4.4197L14.5057 4.96447ZM15.2524 5.30907L15.0009 5.85384V5.85384L15.2524 5.30907ZM12.5625 20.1003C12.8939 20.1003 13.1625 19.8317 13.1625 19.5003C13.1625 19.1689 12.8939 18.9003 12.5625 18.9003V19.5003V20.1003ZM18.525 12.0003C18.525 12.3317 18.7936 12.6003 19.125 12.6003C19.4564 12.6003 19.725 12.3317 19.725 12.0003H19.125H18.525ZM13.2418 4.67473L13.3451 5.26577V5.26577L13.2418 4.67473ZM13.7582 4.67473L13.6549 5.26577V5.26577L13.7582 4.67473ZM15.512 5.42194L15.3117 5.98751V5.98751L15.512 5.42194ZM16.6491 5.37414L16.8488 5.93994L16.8488 5.93994L16.6491 5.37414ZM16.38 5.46238L16.5269 6.04412L16.5269 6.04412L16.38 5.46238ZM17.458 5.12971L17.3912 4.53344V4.53344L17.458 5.12971ZM19.0863 6.28175L18.5018 6.4172L18.5018 6.41721L19.0863 6.28175ZM10.3509 5.37414L10.5506 4.80835V4.80835L10.3509 5.37414ZM10.62 5.46238L10.4731 6.04412V6.04412L10.62 5.46238ZM11.488 5.42194L11.2876 4.85637L11.2876 4.85637L11.488 5.42194ZM7.91372 6.28175L8.49823 6.41721V6.4172L7.91372 6.28175ZM9.54202 5.12971L9.47521 5.72598V5.72598L9.54202 5.12971ZM5.19709 12.2685L5.50579 11.754V11.754L5.19709 12.2685ZM6.86937 12.4025L6.64654 11.8455V11.8455L6.86937 12.4025ZM7.875 12.0003H8.475V7.12589H7.875H7.275V12.0003H7.875ZM11.7476 5.30907L11.9991 5.85384L12.7457 5.50925L12.4943 4.96448L12.2428 4.4197L11.4962 4.76429L11.7476 5.30907ZM14.5057 4.96447L14.2543 5.50925L15.0009 5.85384L15.2524 5.30907L15.5038 4.76429L14.7572 4.4197L14.5057 4.96447ZM12.5625 19.5003V18.9003H6V19.5003V20.1003H12.5625V19.5003ZM19.125 7.12589H18.525V12.0003H19.125H19.725V7.12589H19.125ZM12.4943 4.96448L12.7457 5.50925C13.1446 5.32514 13.2475 5.28283 13.3451 5.26577L13.2418 4.67473L13.1386 4.08368C12.8507 4.13398 12.5837 4.26238 12.2428 4.4197L12.4943 4.96448ZM14.5057 4.96447L14.7572 4.4197C14.4163 4.26239 14.1493 4.13398 13.8614 4.08368L13.7582 4.67473L13.6549 5.26577C13.7525 5.28283 13.8554 5.32514 14.2543 5.50925L14.5057 4.96447ZM13.2418 4.67473L13.3451 5.26577C13.4476 5.24787 13.5524 5.24787 13.6549 5.26577L13.7582 4.67473L13.8614 4.08368C13.6223 4.0419 13.3777 4.0419 13.1386 4.08368L13.2418 4.67473ZM15.2524 5.30907L15.0009 5.85384C15.1207 5.90912 15.2145 5.95309 15.3117 5.98751L15.512 5.42194L15.7124 4.85637C15.6794 4.84468 15.6435 4.82877 15.5038 4.76429L15.2524 5.30907ZM16.6491 5.37414L16.4494 4.80835C16.3043 4.85955 16.2671 4.87206 16.2332 4.88063L16.38 5.46238L16.5269 6.04412C16.6268 6.01889 16.7244 5.98383 16.8488 5.93994L16.6491 5.37414ZM15.512 5.42194L15.3117 5.98751C15.7023 6.12586 16.1251 6.14555 16.5269 6.04412L16.38 5.46238L16.2332 4.88063C16.061 4.9241 15.8798 4.91566 15.7124 4.85637L15.512 5.42194ZM16.6491 5.37414L16.8488 5.93994C17.3104 5.77703 17.4406 5.73541 17.5248 5.72598L17.458 5.12971L17.3912 4.53344C17.1344 4.56221 16.8391 4.67081 16.4494 4.80835L16.6491 5.37414ZM19.125 7.12589H19.725C19.725 6.71266 19.7291 6.398 19.6708 6.1463L19.0863 6.28175L18.5018 6.41721C18.5209 6.4997 18.525 6.63641 18.525 7.12589H19.125ZM17.458 5.12971L17.5248 5.72598C17.9787 5.67513 18.3987 5.97229 18.5018 6.4172L19.0863 6.28175L19.6708 6.1463C19.4302 5.10815 18.4502 4.41479 17.3912 4.53344L17.458 5.12971ZM10.3509 5.37414L10.1512 5.93993C10.2756 5.98384 10.3732 6.01889 10.4731 6.04412L10.62 5.46238L10.7668 4.88063C10.7329 4.87206 10.6957 4.85956 10.5506 4.80835L10.3509 5.37414ZM11.7476 5.30907L11.4962 4.76429C11.3565 4.82877 11.3206 4.84468 11.2876 4.85637L11.488 5.42194L11.6883 5.98751C11.7855 5.95309 11.8793 5.90912 11.9991 5.85384L11.7476 5.30907ZM10.62 5.46238L10.4731 6.04412C10.8749 6.14555 11.2977 6.12586 11.6883 5.98751L11.488 5.42194L11.2876 4.85637C11.1202 4.91566 10.939 4.9241 10.7668 4.88063L10.62 5.46238ZM7.875 7.12589H8.475C8.475 6.63641 8.47912 6.4997 8.49823 6.41721L7.91372 6.28175L7.32921 6.1463C7.27088 6.398 7.275 6.71266 7.275 7.12589H7.875ZM10.3509 5.37414L10.5506 4.80835C10.1609 4.67082 9.86559 4.56221 9.60882 4.53344L9.54202 5.12971L9.47521 5.72598C9.55937 5.73541 9.68965 5.77703 10.1512 5.93993L10.3509 5.37414ZM7.91372 6.28175L8.49823 6.4172C8.60134 5.97229 9.02134 5.67513 9.47521 5.72598L9.54202 5.12971L9.60882 4.53344C8.54979 4.41479 7.56979 5.10815 7.32921 6.1463L7.91372 6.28175ZM7.875 12.0003H7.275V17.6253H7.875H8.475V12.0003H7.875ZM4.125 17.6253H4.725V12.8755H4.125H3.525V17.6253H4.125ZM6.86937 12.4025L7.09221 12.9596L8.09783 12.5574L7.875 12.0003L7.65217 11.4432L6.64654 11.8455L6.86937 12.4025ZM5.19709 12.2685L4.88839 12.783C5.55505 13.183 6.37037 13.2484 7.09221 12.9596L6.86937 12.4025L6.64654 11.8455C6.2729 11.9949 5.85087 11.9611 5.50579 11.754L5.19709 12.2685ZM6 19.5003V18.9003C5.29584 18.9003 4.725 18.3295 4.725 17.6253H4.125H3.525C3.525 18.9922 4.6331 20.1003 6 20.1003V19.5003ZM7.875 17.6253H7.275C7.275 18.3295 6.70416 18.9003 6 18.9003V19.5003V20.1003C7.3669 20.1003 8.475 18.9922 8.475 17.6253H7.875ZM4.125 12.8755H4.725C4.725 12.7917 4.81648 12.7399 4.88839 12.783L5.19709 12.2685L5.50579 11.754C4.63405 11.231 3.525 11.8589 3.525 12.8755H4.125Z" fill="#1A1A1A"/>
<path d="M17.2266 15.3253C17.3152 14.8917 17.9347 14.8917 18.0233 15.3253C18.219 16.2828 18.9673 17.0311 19.9248 17.2268C20.3583 17.3154 20.3583 17.9348 19.9248 18.0234C18.9673 18.2191 18.219 18.9674 18.0233 19.9249C17.9347 20.3585 17.3152 20.3585 17.2266 19.9249C17.0309 18.9674 16.2826 18.2191 15.3251 18.0234C14.8916 17.9348 14.8916 17.3154 15.3251 17.2268C16.2826 17.0311 17.0309 16.2828 17.2266 15.3253Z" fill="#1A1A1A"/>
<path d="M11.4551 7.5C11.9572 7.50004 12.2215 7.71944 12.4092 8.29297L13.041 10.2305C13.1044 10.4286 13.1337 10.5661 13.1338 10.6797C13.1338 10.9705 12.9246 11.1611 12.6074 11.1611C12.314 11.1611 12.1419 10.9968 12.0361 10.6162L11.9912 10.4521H10.8574L10.8125 10.6162C10.7041 11.0074 10.5483 11.1611 10.2549 11.1611C9.95883 11.1611 9.75 10.9733 9.75 10.709C9.75 10.6033 9.77939 10.4736 9.86133 10.2305L10.4951 8.29297C10.6828 7.72201 10.9528 7.5 11.4551 7.5ZM11.0693 9.67285H11.7852L11.46 8.44336H11.4023L11.0693 9.67285Z" fill="#1A1A1A"/>
<path d="M10.5 12.9C10.1686 12.9 9.9 13.1686 9.9 13.5C9.9 13.8314 10.1686 14.1 10.5 14.1V13.5V12.9ZM15.75 14.1C16.0814 14.1 16.35 13.8314 16.35 13.5C16.35 13.1686 16.0814 12.9 15.75 12.9V13.5V14.1ZM10.5 13.5V14.1H15.75V13.5V12.9H10.5V13.5Z" fill="#1A1A1A"/>
<path d="M10.5 15.15C10.1686 15.15 9.9 15.4186 9.9 15.75C9.9 16.0814 10.1686 16.35 10.5 16.35V15.75V15.15ZM12.75 16.35C13.0814 16.35 13.35 16.0814 13.35 15.75C13.35 15.4186 13.0814 15.15 12.75 15.15V15.75V16.35ZM10.5 15.75V16.35H12.75V15.75V15.15H10.5V15.75Z" fill="#1A1A1A"/>
</svg>
