<svg width="24" height="24" viewBox="0 0 24 24" fill="none" xmlns="http://www.w3.org/2000/svg">
<path d="M17.2379 16.4375C18.7279 16.4375 19.9357 15.2296 19.9357 13.7397V11.217C19.9357 9.53683 19.9357 8.69676 19.6088 8.05502C19.3211 7.49053 18.8622 7.03159 18.2977 6.74397C17.656 6.41699 16.8159 6.41699 15.1358 6.41699H10.3007C9.8654 6.41699 9.64777 6.41699 9.46489 6.43954C8.09908 6.60796 7.02299 7.68404 6.85458 9.04985C6.83203 9.23273 6.83203 9.45036 6.83203 9.88562" stroke="#1A1A1A" stroke-width="1.2" stroke-linecap="round" stroke-linejoin="round"/>
<circle cx="8.37492" cy="11.8134" r="2.31242" stroke="#1A1A1A" stroke-width="1.2" stroke-linecap="round"/>
<path d="M3.75 18.7504C3.75 16.1962 5.82061 14.1256 8.37484 14.1256C10.7794 14.1256 12.7553 15.9606 12.9787 18.3067C13.0019 18.5509 13.1986 18.7504 13.4439 18.7504C13.6382 18.7504 13.8099 18.6242 13.8679 18.4387L15.6975 12.584" stroke="#1A1A1A" stroke-width="1.2" stroke-linecap="round"/>
</svg>
