<svg width="24" height="24" viewBox="0 0 24 24" fill="none" xmlns="http://www.w3.org/2000/svg">
<path d="M15.2744 16.1113C15.083 16.1113 14.944 16.068 14.8574 15.9814C14.7754 15.8949 14.7344 15.7536 14.7344 15.5576V8.58496C14.7344 8.389 14.7754 8.24772 14.8574 8.16113C14.944 8.07454 15.083 8.03125 15.2744 8.03125H17.2158C17.4072 8.03125 17.5439 8.07454 17.626 8.16113C17.7126 8.24772 17.7559 8.389 17.7559 8.58496V15.5576C17.7559 15.7536 17.7126 15.8949 17.626 15.9814C17.5439 16.068 17.4072 16.1113 17.2158 16.1113H15.2744ZM6.1416 18.4492C5.40332 18.4492 4.84505 18.2624 4.4668 17.8887C4.08854 17.515 3.89941 16.9635 3.89941 16.2344V7.9082C3.89941 7.17904 4.08854 6.6276 4.4668 6.25391C4.84505 5.87565 5.40332 5.68652 6.1416 5.68652H17.8447C18.5876 5.68652 19.1481 5.87565 19.5264 6.25391C19.9046 6.6276 20.0938 7.17904 20.0938 7.9082V16.2344C20.0938 16.9635 19.9046 17.515 19.5264 17.8887C19.1481 18.2624 18.5876 18.4492 17.8447 18.4492H6.1416ZM6.22363 17.1094H17.7695C18.084 17.1094 18.3255 17.0273 18.4941 16.8633C18.6628 16.6947 18.7471 16.4463 18.7471 16.1182V8.02441C18.7471 7.69629 18.6628 7.4502 18.4941 7.28613C18.3255 7.11751 18.084 7.0332 17.7695 7.0332H6.22363C5.90462 7.0332 5.66081 7.11751 5.49219 7.28613C5.32812 7.4502 5.24609 7.69629 5.24609 8.02441V16.1182C5.24609 16.4463 5.32812 16.6947 5.49219 16.8633C5.66081 17.0273 5.90462 17.1094 6.22363 17.1094Z" fill="#1A1A1A"/>
</svg>
