<svg width="24" height="24" viewBox="0 0 24 24" fill="none" xmlns="http://www.w3.org/2000/svg">
<path d="M5.89551 12.5635C5.89551 11.7204 6.05273 10.9297 6.36719 10.1914C6.6862 9.45312 7.1237 8.80371 7.67969 8.24316C8.24023 7.68262 8.88965 7.24512 9.62793 6.93066C10.3662 6.61621 11.1569 6.45898 12 6.45898C12.1732 6.45898 12.3418 6.4681 12.5059 6.48633C12.6745 6.5 12.8317 6.52279 12.9775 6.55469L11.3301 4.9209C11.2708 4.86165 11.2253 4.79329 11.1934 4.71582C11.1615 4.63835 11.1455 4.55632 11.1455 4.46973C11.1455 4.27832 11.207 4.11882 11.3301 3.99121C11.4577 3.85905 11.6126 3.79297 11.7949 3.79297C11.9909 3.79297 12.1504 3.85677 12.2734 3.98438L15.0762 6.8418C15.2174 6.98307 15.2881 7.14714 15.2881 7.33398C15.2881 7.42513 15.2699 7.51172 15.2334 7.59375C15.2015 7.67578 15.1491 7.75326 15.0762 7.82617L12.2666 10.6562C12.139 10.7793 11.9818 10.8408 11.7949 10.8408C11.6126 10.8408 11.4577 10.777 11.3301 10.6494C11.207 10.5218 11.1455 10.3646 11.1455 10.1777C11.1455 10.0911 11.1592 10.0114 11.1865 9.93848C11.2184 9.861 11.2686 9.79036 11.3369 9.72656L13.1758 7.90137C13.0072 7.86491 12.8226 7.83757 12.6221 7.81934C12.4261 7.80111 12.2188 7.79199 12 7.79199C11.3438 7.79199 10.7262 7.91504 10.1475 8.16113C9.57324 8.40723 9.06738 8.74902 8.62988 9.18652C8.19694 9.62402 7.85514 10.1322 7.60449 10.7109C7.3584 11.2852 7.23535 11.9004 7.23535 12.5566C7.23535 13.2129 7.3584 13.8304 7.60449 14.4092C7.85514 14.9834 8.19694 15.4893 8.62988 15.9268C9.06738 16.3597 9.57324 16.6992 10.1475 16.9453C10.7262 17.1914 11.3437 17.3145 12 17.3145C12.6562 17.3145 13.2715 17.1914 13.8457 16.9453C14.4245 16.6992 14.9303 16.3597 15.3633 15.9268C15.8008 15.4893 16.1426 14.9834 16.3887 14.4092C16.6348 13.8304 16.7578 13.2129 16.7578 12.5566C16.7578 12.3516 16.8171 12.1852 16.9355 12.0576C17.0586 11.93 17.2181 11.8662 17.4141 11.8662C17.6191 11.8662 17.7855 11.93 17.9131 12.0576C18.0407 12.1852 18.1045 12.3538 18.1045 12.5635C18.1045 13.4066 17.945 14.1973 17.626 14.9355C17.3115 15.6693 16.874 16.3164 16.3135 16.877C15.7529 17.4375 15.1035 17.875 14.3652 18.1895C13.6315 18.5039 12.8431 18.6611 12 18.6611C11.1569 18.6611 10.3662 18.5039 9.62793 18.1895C8.88965 17.875 8.24023 17.4375 7.67969 16.877C7.1237 16.3164 6.6862 15.6693 6.36719 14.9355C6.05273 14.1973 5.89551 13.4066 5.89551 12.5635Z" fill="#1A1A1A"/>
</svg>
