<svg width="24" height="24" viewBox="0 0 24 24" fill="none" xmlns="http://www.w3.org/2000/svg">
<g clip-path="url(#clip0_63_913)">
<path d="M17.3975 12.2747H17.7891L18.1279 12.2756C18.9448 12.2775 20.1319 12.2804 21.6895 12.2844L22.0059 12.2854L20.0889 14.2561H16.9033C16.5164 14.2893 16.1195 14.5039 15.7129 14.8997C15.5519 15.0563 15.0636 15.558 14.248 16.4045H17.8604C17.735 16.56 17.6391 16.6744 17.5732 16.7473C16.4857 17.9508 15.0255 18.5529 13.1934 18.553C12.2882 18.553 11.3981 18.1948 10.5244 17.4788L11.2236 16.7542L11.5615 16.4045H11.5508L13.6348 14.2561C14.6445 13.0006 15.6649 12.3415 16.6963 12.2786L16.8594 12.2737L17.3975 12.2747ZM17.3154 4.77271C18.6445 4.77281 19.7227 5.85083 19.7227 7.17993V9.17798C19.7224 9.56431 19.4088 9.87807 19.0225 9.87817C18.636 9.87817 18.3225 9.56437 18.3223 9.17798V7.17993C18.3223 6.62402 17.8713 6.1732 17.3154 6.1731H5.31738C4.76141 6.1731 4.31055 6.62396 4.31055 7.17993V15.178C4.31086 15.7337 4.7616 16.1838 5.31738 16.1838H5.58203C5.96846 16.1839 6.2821 16.4976 6.28223 16.884C6.28212 17.2705 5.96848 17.5841 5.58203 17.5842H5.31738C3.98841 17.5842 2.91047 16.5069 2.91016 15.178V7.17993C2.91016 5.85076 3.98821 4.77271 5.31738 4.77271H17.3154ZM8.90723 12.6223C9.57369 12.6224 10.2751 13.0635 11.0117 13.9456H11.0156L12.1885 15.177L11.2959 16.1106L11.0469 15.8489L10.9043 15.6995L10.5186 15.2952C10.4401 15.213 10.3666 15.1356 10.2979 15.0637L10.1055 14.8635C9.83913 14.5859 9.67097 14.4112 9.59961 14.3411C9.35231 14.098 9.10655 13.9675 8.86328 13.9485L7.2998 13.9495L6.03223 12.6301C7.01487 12.627 7.75163 12.6246 8.24219 12.6233H8.49805L8.90723 12.6223Z" fill="#1A1A1A"/>
</g>
<defs>
<clipPath id="clip0_63_913">
<rect width="18" height="18" fill="white" transform="translate(3 3)"/>
</clipPath>
</defs>
</svg>
