<svg width="24" height="24" viewBox="0 0 24 24" fill="none" xmlns="http://www.w3.org/2000/svg">
<path d="M5.19824 10.8477C5.19824 10.0729 5.34408 9.34375 5.63574 8.66016C5.92741 7.97656 6.33301 7.37728 6.85254 6.8623C7.37207 6.34277 7.97135 5.93717 8.65039 5.64551C9.33398 5.35384 10.0654 5.20801 10.8447 5.20801C11.624 5.20801 12.3532 5.35384 13.0322 5.64551C13.7158 5.93717 14.3174 6.34277 14.8369 6.8623C15.3564 7.37728 15.762 7.97656 16.0537 8.66016C16.3454 9.34375 16.4912 10.0729 16.4912 10.8477C16.4912 11.431 16.4046 11.987 16.2314 12.5156C16.0628 13.0443 15.8258 13.5296 15.5205 13.9717L18.4668 16.9316C18.5762 17.0456 18.6582 17.1709 18.7129 17.3076C18.7721 17.4489 18.8018 17.5993 18.8018 17.7588C18.8018 17.9775 18.7516 18.1758 18.6514 18.3535C18.5511 18.5312 18.4144 18.6702 18.2412 18.7705C18.068 18.8753 17.8675 18.9277 17.6396 18.9277C17.4847 18.9277 17.3343 18.9004 17.1885 18.8457C17.0426 18.791 16.9128 18.7067 16.7988 18.5928L13.8252 15.6191C13.3968 15.8926 12.9297 16.109 12.4238 16.2686C11.9225 16.4235 11.3962 16.501 10.8447 16.501C10.0654 16.501 9.33398 16.3551 8.65039 16.0635C7.97135 15.7718 7.37207 15.3662 6.85254 14.8467C6.33301 14.3271 5.92741 13.7256 5.63574 13.042C5.34408 12.3584 5.19824 11.627 5.19824 10.8477ZM6.81152 10.8477C6.81152 11.4082 6.91406 11.9323 7.11914 12.4199C7.32878 12.9076 7.61816 13.3359 7.9873 13.7051C8.361 14.0742 8.79167 14.3636 9.2793 14.5732C9.76693 14.7829 10.2887 14.8877 10.8447 14.8877C11.4007 14.8877 11.9225 14.7829 12.4102 14.5732C12.8978 14.3636 13.3262 14.0742 13.6953 13.7051C14.0645 13.3359 14.3538 12.9076 14.5635 12.4199C14.7731 11.9323 14.8779 11.4082 14.8779 10.8477C14.8779 10.2917 14.7731 9.77214 14.5635 9.28906C14.3538 8.80143 14.0645 8.37305 13.6953 8.00391C13.3262 7.63021 12.8978 7.33854 12.4102 7.12891C11.9225 6.91927 11.4007 6.81445 10.8447 6.81445C10.2887 6.81445 9.76693 6.91927 9.2793 7.12891C8.79167 7.33854 8.361 7.63021 7.9873 8.00391C7.61816 8.37305 7.32878 8.80143 7.11914 9.28906C6.91406 9.77214 6.81152 10.2917 6.81152 10.8477Z" fill="#1A1A1A"/>
</svg>
