<svg width="24" height="24" viewBox="0 0 24 24" fill="none" xmlns="http://www.w3.org/2000/svg">
<path d="M17.7979 3.75537C19.3992 3.75572 20.6973 5.05435 20.6973 6.65576V13.6333C20.6972 15.0747 19.6445 16.266 18.2666 16.4907L19.6162 19.2349C19.7868 19.5816 19.6444 20.0016 19.2979 20.1724C18.9511 20.343 18.5312 20.2006 18.3604 19.854L16.7266 16.5337H7.27246L5.63965 19.854C5.46887 20.2007 5.04893 20.343 4.70215 20.1724C4.35539 20.0016 4.21215 19.5817 4.38281 19.2349L5.73242 16.4907C4.35492 16.2656 3.30283 15.0744 3.30273 13.6333V6.65576C3.30273 5.05414 4.6015 3.75537 6.20312 3.75537H17.7979ZM6.20312 5.15576C5.3747 5.15576 4.70312 5.82733 4.70312 6.65576V13.6333C4.70323 14.4616 5.37476 15.1333 6.20312 15.1333H17.7979C18.6259 15.1329 19.2977 14.4614 19.2979 13.6333V6.65576C19.2979 5.82755 18.626 5.15611 17.7979 5.15576H6.20312ZM17.0635 13.0103C17.4499 13.0104 17.7637 13.324 17.7637 13.7104C17.7636 14.0969 17.4499 14.4105 17.0635 14.4106H13.4717C13.0851 14.4106 12.7715 14.097 12.7715 13.7104C12.7715 13.3238 13.0851 13.0103 13.4717 13.0103H17.0635Z" fill="#1A1A1A"/>
</svg>
