<svg width="24" height="24" viewBox="0 0 24 24" fill="none" xmlns="http://www.w3.org/2000/svg">
<path d="M4.83643 19.1289C3.96208 19.1289 3.30355 18.9131 2.86084 18.4814C2.42367 18.0498 2.20508 17.4023 2.20508 16.5391V11.625C2.20508 11.3649 2.21891 11.1436 2.24658 10.9609C2.27425 10.7728 2.32406 10.604 2.396 10.4546C2.46794 10.2996 2.56755 10.1447 2.69482 9.98975L5.54199 6.47852C5.86296 6.08008 6.14795 5.76742 6.39697 5.54053C6.65153 5.30811 6.93099 5.14486 7.23535 5.05078C7.53971 4.95117 7.93815 4.90137 8.43066 4.90137H15.5693C16.0618 4.90137 16.4603 4.95117 16.7646 5.05078C17.0745 5.14486 17.354 5.30811 17.603 5.54053C17.8521 5.76742 18.1398 6.08008 18.4663 6.47852L21.3052 9.98975C21.4325 10.1447 21.5321 10.2996 21.604 10.4546C21.6759 10.604 21.7257 10.7728 21.7534 10.9609C21.7811 11.1436 21.7949 11.3649 21.7949 11.625V16.5391C21.7949 17.4023 21.5763 18.0498 21.1392 18.4814C20.702 18.9131 20.0435 19.1289 19.1636 19.1289H4.83643ZM4.86133 17.7427H19.1387C19.5426 17.7427 19.8553 17.6348 20.0767 17.4189C20.298 17.2031 20.4087 16.8822 20.4087 16.4561V12.3472H15.1958C15.1239 12.8563 14.9412 13.3128 14.6479 13.7168C14.3602 14.1208 13.9867 14.4417 13.5273 14.6797C13.0736 14.9121 12.5645 15.0283 12 15.0283C11.4411 15.0283 10.932 14.9121 10.4727 14.6797C10.0189 14.4473 9.64535 14.1291 9.35205 13.7251C9.05876 13.3211 8.87614 12.8618 8.8042 12.3472H3.59131V16.4561C3.59131 16.8822 3.69922 17.2031 3.91504 17.4189C4.13639 17.6348 4.45182 17.7427 4.86133 17.7427ZM12 13.75C12.3874 13.75 12.7222 13.6532 13.0044 13.4595C13.2922 13.2603 13.5163 13.0112 13.6768 12.7124C13.8372 12.4136 13.9175 12.1037 13.9175 11.7827V11.7578C13.9175 11.5918 13.9673 11.4396 14.0669 11.3013C14.1665 11.1629 14.327 11.0938 14.5483 11.0938H20.002C20.1348 11.0938 20.215 11.0467 20.2427 10.9526C20.2759 10.8586 20.2593 10.7673 20.1929 10.6787L17.1133 6.81885C16.9141 6.56429 16.6955 6.38167 16.4575 6.271C16.2251 6.16032 15.9595 6.10498 15.6606 6.10498H8.33936C8.04606 6.10498 7.78044 6.16032 7.54248 6.271C7.30452 6.38167 7.08594 6.56429 6.88672 6.81885L3.81543 10.6787C3.74349 10.7673 3.72135 10.8586 3.74902 10.9526C3.78223 11.0467 3.868 11.0938 4.00635 11.0938H9.45166C9.66748 11.0938 9.82796 11.1629 9.93311 11.3013C10.0382 11.4396 10.0908 11.5918 10.0908 11.7578V11.7827C10.0908 12.1037 10.1683 12.4136 10.3232 12.7124C10.4837 13.0112 10.7051 13.2603 10.9873 13.4595C11.2751 13.6532 11.6126 13.75 12 13.75Z" fill="currentColor"/>
</svg>
