<svg width="24" height="24" viewBox="0 0 24 24" fill="none" xmlns="http://www.w3.org/2000/svg">
<path d="M7.96582 21.1543C7.67253 21.1543 7.44287 21.0547 7.27686 20.8555C7.11637 20.6618 7.03613 20.4017 7.03613 20.0752V17.9336H6.62939C5.81038 17.9336 5.11589 17.7842 4.5459 17.4854C3.98145 17.1865 3.55257 16.7549 3.25928 16.1904C2.96598 15.6204 2.81934 14.9287 2.81934 14.1152V7.74023C2.81934 6.92676 2.96598 6.23779 3.25928 5.67334C3.55257 5.10335 3.98145 4.66895 4.5459 4.37012C5.11589 4.07129 5.81315 3.92188 6.6377 3.92188H17.354C18.1785 3.92188 18.873 4.07129 19.4375 4.37012C20.0075 4.66895 20.4391 5.10335 20.7324 5.67334C21.0257 6.23779 21.1724 6.92676 21.1724 7.74023V14.1152C21.1724 14.9287 21.0257 15.6204 20.7324 16.1904C20.4391 16.7549 20.0075 17.1865 19.4375 17.4854C18.873 17.7842 18.1785 17.9336 17.354 17.9336H12.0581L9.19434 20.4736C8.93978 20.7005 8.72396 20.8693 8.54688 20.98C8.36979 21.0962 8.17611 21.1543 7.96582 21.1543ZM8.32275 19.5771L10.9707 16.9458C11.1312 16.7798 11.2834 16.6719 11.4272 16.6221C11.5711 16.5723 11.762 16.5474 12 16.5474H17.3457C18.1702 16.5474 18.7817 16.3398 19.1802 15.9248C19.5786 15.5098 19.7778 14.901 19.7778 14.0986V7.74854C19.7778 6.95166 19.5786 6.34847 19.1802 5.93896C18.7817 5.52393 18.1702 5.31641 17.3457 5.31641H6.646C5.81592 5.31641 5.20166 5.52393 4.80322 5.93896C4.40479 6.34847 4.20557 6.95166 4.20557 7.74854V14.0986C4.20557 14.901 4.40479 15.5098 4.80322 15.9248C5.20166 16.3398 5.81592 16.5474 6.646 16.5474H7.69189C7.91878 16.5474 8.07926 16.5944 8.17334 16.6885C8.27295 16.7826 8.32275 16.9458 8.32275 17.1782V19.5771ZM7.94092 12.123C7.61442 12.123 7.33219 12.0068 7.09424 11.7744C6.86182 11.5365 6.74561 11.2542 6.74561 10.9277C6.74561 10.6012 6.86182 10.3218 7.09424 10.0894C7.33219 9.8514 7.61442 9.73242 7.94092 9.73242C8.27295 9.73242 8.55518 9.8514 8.7876 10.0894C9.02002 10.3218 9.13623 10.6012 9.13623 10.9277C9.13623 11.2542 9.02002 11.5365 8.7876 11.7744C8.55518 12.0068 8.27295 12.123 7.94092 12.123ZM12 12.123C11.668 12.123 11.383 12.0068 11.145 11.7744C10.9126 11.5365 10.7964 11.2542 10.7964 10.9277C10.7964 10.6012 10.9126 10.3218 11.145 10.0894C11.383 9.8514 11.668 9.73242 12 9.73242C12.3265 9.73242 12.606 9.8514 12.8384 10.0894C13.0763 10.3218 13.1953 10.6012 13.1953 10.9277C13.1953 11.2542 13.0763 11.5365 12.8384 11.7744C12.606 12.0068 12.3265 12.123 12 12.123ZM16.0508 12.123C15.7243 12.123 15.4421 12.0068 15.2041 11.7744C14.9717 11.5365 14.8555 11.2542 14.8555 10.9277C14.8555 10.6012 14.9717 10.3218 15.2041 10.0894C15.4421 9.8514 15.7243 9.73242 16.0508 9.73242C16.3773 9.73242 16.6567 9.8514 16.8892 10.0894C17.1271 10.3218 17.2461 10.6012 17.2461 10.9277C17.2461 11.2542 17.1271 11.5365 16.8892 11.7744C16.6567 12.0068 16.3773 12.123 16.0508 12.123Z" fill="currentColor"/>
</svg>
