<svg width="24" height="24" viewBox="0 0 24 24" fill="none" xmlns="http://www.w3.org/2000/svg">
<path d="M16.0635 2.89929C16.45 2.8994 16.7637 3.21295 16.7637 3.59949V4.73718H17.0381C19.262 4.7374 21.0645 6.5406 21.0645 8.76453V16.6024C21.0642 18.8261 19.2618 20.6286 17.0381 20.6288H6.92969C4.70579 20.6288 2.90263 18.8262 2.90234 16.6024V8.76453C2.90234 6.54046 4.70562 4.73718 6.92969 4.73718H7.19922V3.59949C7.19922 3.21289 7.51281 2.89929 7.89941 2.89929C8.28592 2.8994 8.59961 3.21295 8.59961 3.59949V4.73718H15.3633V3.59949C15.3633 3.21289 15.6769 2.89929 16.0635 2.89929ZM4.30273 10.6171V16.6024C4.30302 18.053 5.47899 19.2294 6.92969 19.2294H17.0381C18.4886 19.2291 19.6648 18.0529 19.665 16.6024V10.6171H4.30273ZM6.92969 6.13757C5.47882 6.13757 4.30273 7.31366 4.30273 8.76453V9.21667H19.665V8.76453C19.665 7.31379 18.4888 6.1378 17.0381 6.13757H6.92969Z" fill="currentColor"/>
</svg>
