<svg width="124" height="30" viewBox="0 0 124 30" fill="none" xmlns="http://www.w3.org/2000/svg">
<path d="M62.7373 10.4463V22.0479L60.0469 23.1406V9.4375L62.7373 10.4463ZM28.2256 21.25H25.7031V7.21094H28.2256V21.25ZM34.665 10.4258C35.7549 10.4258 36.7666 10.7757 37.6016 11.3721V10.4473H40.124V21.25H37.6016V20.1963C36.7663 20.7933 35.7549 21.1445 34.665 21.1445C31.8084 21.1445 29.4844 18.7403 29.4844 15.7852C29.4844 12.8301 31.8065 10.4258 34.665 10.4258ZM69.418 10.4473C72.3434 10.5374 73.4349 12.5511 73.8145 13.6514C73.9378 14.0111 74.0003 14.3892 74 14.7695V21.248L71.4375 20.2393V15.0752C71.4397 14.7269 71.3399 14.385 71.1504 14.0928C70.4783 13.0755 69.3196 13.0942 69.293 13.0947C68.8949 13.0872 68.5037 13.2029 68.1738 13.4258C67.6592 13.7861 67.3548 14.3767 67.3594 15.0049V20.1973L64.8369 21.248L64.8359 13.9355C65.719 10.489 69.418 10.4473 69.418 10.4473ZM45.5732 10.7109C46.8303 10.711 48.1441 11.1674 49.084 12.0283L47.8379 13.4609C47.1192 12.9531 46.4358 12.672 45.5732 12.6719C44.7229 12.6719 44.1797 12.9969 44.1797 13.5732C44.1798 14.1899 44.8933 14.414 45.8457 14.7637L47.2363 15.2822C48.5692 15.7787 49.4014 16.5969 49.4014 18.0176C49.4011 19.6893 47.8901 21.1338 45.29 21.1338C43.8723 21.1352 42.3632 20.6401 41.25 19.6816L42.667 18.1221C43.443 18.7443 44.45 19.1729 45.3477 19.1729C46.3776 19.1728 46.8798 18.7988 46.8799 18.2021C46.8799 17.5691 46.2596 17.3662 45.3066 17.0049L43.8887 16.4473C42.7578 16.0237 41.6865 15.1676 41.6865 13.707C41.6867 12.0413 43.3019 10.7109 45.5732 10.7109ZM19.0518 7.18945C21.1004 7.18588 23.0501 8.07006 24.3975 9.61328L22.457 11.0996C21.5753 10.1579 20.3418 9.62485 19.0518 9.62793C16.5081 9.62793 14.4375 11.6523 14.4375 14.1406C14.4378 16.6288 16.5083 18.6533 19.0518 18.6533C20.43 18.6571 21.7388 18.0476 22.624 16.9912L24.2432 18.8379C22.901 20.2777 21.0201 21.0941 19.0518 21.0908C15.1638 21.0908 12.0003 17.9728 12 14.1406C12 10.3082 15.1636 7.18945 19.0518 7.18945ZM54.6514 10.584C55.908 10.5841 57.2222 11.0409 58.1621 11.9023L56.916 13.334C56.1973 12.8262 55.5139 12.545 54.6514 12.5449C53.801 12.5449 53.2578 12.8699 53.2578 13.4463C53.2579 14.0629 53.9714 14.2875 54.9238 14.6367L56.3145 15.1553C57.6473 15.6517 58.4795 16.4695 58.4795 17.8906C58.4795 19.5625 56.9679 21.0068 54.3672 21.0068C52.9499 21.0081 51.4412 20.5141 50.3281 19.5547L51.7451 17.9951C52.5212 18.6174 53.5276 19.0459 54.4258 19.0459C55.4558 19.0459 55.958 18.6738 55.958 18.0752C55.9578 17.4425 55.3379 17.2391 54.3848 16.8779L52.9668 16.3213C51.836 15.8973 50.7638 15.0415 50.7637 13.5811C50.7637 11.9147 52.3799 10.584 54.6514 10.584ZM34.665 12.7383C33.0832 12.7383 31.7959 14.1059 31.7959 15.7861C31.7959 17.4664 33.0832 18.834 34.665 18.834C36.2468 18.8339 37.5342 17.4664 37.5342 15.7861C37.5342 14.1059 36.2468 12.7373 34.665 12.7373V12.7383ZM62.8604 8.09277V9.60645L59.918 8.63965V7L62.8604 8.09277Z" fill="#1A1A1A"/>
</svg>
